<svg xmlns="http://www.w3.org/2000/svg" viewBox="0 0 64 64" width="100" height="100">
  <!-- Petali principali rosa salmone chiaro con sfumature -->
  <g>
    <ellipse cx="32" cy="14" rx="9" ry="16" fill="#f7c6c7" />
    <ellipse cx="46" cy="22" rx="9" ry="16" fill="#f7b6b8" transform="rotate(45 46 22)" />
    <ellipse cx="46" cy="42" rx="9" ry="16" fill="#f7b6b8" transform="rotate(135 46 42)" />
    <ellipse cx="32" cy="50" rx="9" ry="16" fill="#f7c6c7" />
    <ellipse cx="18" cy="42" rx="9" ry="16" fill="#f7b6b8" transform="rotate(-135 18 42)" />
    <ellipse cx="18" cy="22" rx="9" ry="16" fill="#f7b6b8" transform="rotate(-45 18 22)" />
  </g>

  <!-- Centro fiore giallo pastello con dettaglio -->
  <circle cx="32" cy="32" r="11" fill="#f9e2ae" />
  <circle cx="32" cy="32" r="7" fill="#f7d77a" />
  <circle cx="32" cy="32" r="4" fill="#f9e2ae" />

  <!-- Dettagli petali: linee sottili bianche -->
  <g stroke="white" stroke-width="1">
    <line x1="32" y1="14" x2="32" y2="0" />
    <line x1="46" y1="22" x2="60" y2="10" />
    <line x1="46" y1="42" x2="60" y2="54" />
    <line x1="32" y1="50" x2="32" y2="64" />
    <line x1="18" y1="42" x2="4" y2="54" />
    <line x1="18" y1="22" x2="4" y2="10" />
  </g>
</svg>
